<?xml version="1.0" standalone="no"?>
<!DOCTYPE svg PUBLIC "-//W3C//DTD SVG 20010904//EN"
 "http://www.w3.org/TR/2001/REC-SVG-20010904/DTD/svg10.dtd">
<svg version="1.0" xmlns="http://www.w3.org/2000/svg"
 width="320.000000pt" height="320.000000pt" viewBox="0 0 320.000000 320.000000"
 preserveAspectRatio="xMidYMid meet">
<metadata>
Created by potrace 1.14, written by Peter Selinger 2001-2017
</metadata>
<g transform="translate(0.000000,320.000000) scale(0.100000,-0.100000)"
fill="#000000" stroke="none">
<path d="M1577 3154 c-1 -1 -45 -4 -97 -8 -52 -3 -106 -8 -120 -11 -14 -3 -38
-8 -55 -11 -16 -2 -46 -9 -65 -14 -19 -5 -45 -11 -57 -13 -12 -2 -26 -6 -29
-10 -4 -4 -13 -7 -20 -7 -7 0 -25 -5 -41 -12 -15 -7 -32 -12 -38 -13 -5 -1
-36 -13 -68 -28 -32 -15 -62 -27 -67 -27 -5 0 -15 -6 -22 -13 -7 -6 -32 -21
-55 -32 -24 -11 -43 -23 -43 -27 0 -5 -7 -8 -15 -8 -8 0 -24 -9 -34 -19 -11
-11 -22 -17 -25 -14 -3 3 -8 -2 -12 -11 -3 -9 -10 -13 -15 -10 -5 3 -12 -2
-15 -10 -3 -9 -10 -16 -15 -16 -11 0 -35 -20 -123 -102 -39 -37 -74 -68 -78
-68 -5 0 -8 -4 -8 -9 0 -5 -20 -31 -45 -58 -25 -26 -45 -51 -45 -55 0 -4 -6
-13 -14 -21 -8 -8 -33 -43 -55 -78 -22 -35 -44 -69 -48 -74 -23 -32 -115 -235
-106 -235 3 0 1 -6 -5 -12 -8 -11 -23 -53 -38 -110 -1 -5 -3 -11 -4 -15 -1 -5
-3 -12 -5 -18 -1 -5 -3 -12 -4 -15 -1 -3 -4 -15 -7 -27 -2 -13 -6 -33 -8 -45
-3 -13 -5 -23 -6 -23 -1 0 -3 -13 -5 -30 -1 -16 -6 -55 -9 -85 -8 -64 -9 -257
-2 -317 6 -52 42 -248 46 -248 1 0 3 -8 5 -17 6 -33 28 -93 38 -106 5 -6 7
-12 4 -12 -5 0 17 -55 61 -150 9 -19 21 -38 26 -42 6 -4 8 -8 3 -8 -8 0 44
-83 56 -88 4 -2 7 -10 7 -17 0 -19 146 -200 202 -252 25 -23 43 -44 40 -47 -3
-3 -1 -6 4 -6 6 0 35 -21 65 -46 83 -70 89 -74 98 -74 4 0 16 -9 26 -20 10
-11 21 -20 26 -20 4 0 37 -19 75 -41 37 -23 72 -42 78 -44 6 -1 36 -13 66 -27
53 -25 84 -37 105 -44 55 -18 156 -45 179 -50 16 -3 33 -7 36 -9 4 -3 32 -7
61 -10 30 -3 68 -8 84 -11 38 -7 282 -7 315 1 14 3 50 8 79 11 30 3 58 7 61 9
4 2 22 7 41 10 44 9 71 16 149 40 3 1 14 5 25 10 136 54 171 70 176 78 3 5 9
8 13 7 6 -1 84 42 155 85 63 39 151 113 241 205 113 116 109 111 160 185 19
28 38 52 41 55 6 5 54 89 91 160 13 25 34 74 47 110 14 36 29 71 34 78 5 6 7
12 4 12 -4 0 1 19 9 43 15 41 19 56 29 107 3 14 7 36 10 50 11 54 15 78 20
140 8 80 8 263 0 310 -3 19 -7 53 -10 75 -3 22 -10 61 -16 86 -6 26 -12 55
-14 65 -2 11 -4 19 -5 19 -1 0 -3 8 -5 17 -6 33 -28 93 -38 106 -5 6 -7 12 -4
12 5 0 -17 55 -61 150 -9 19 -21 38 -26 42 -6 4 -8 8 -3 8 8 0 -44 83 -55 88
-5 2 -8 10 -8 17 0 8 -35 58 -78 112 -83 103 -201 219 -291 286 -64 47 -211
139 -227 141 -7 1 -18 7 -25 12 -8 6 -34 19 -59 28 -25 10 -58 23 -75 30 -44
19 -148 50 -205 61 -8 2 -26 6 -40 9 -61 15 -314 38 -323 30z"/>
</g>
</svg>
